<?xml version="1.0" encoding="utf-8"?>
<!-- Generator: Adobe Illustrator 22.0.1, SVG Export Plug-In . SVG Version: 6.00 Build 0)  -->
<svg version="1.1" id="Layer_1" xmlns="http://www.w3.org/2000/svg" xmlns:xlink="http://www.w3.org/1999/xlink" x="0px" y="0px"
	 viewBox="0 0 193 146" style="enable-background:new 0 0 193 146;" xml:space="preserve">
<style type="text/css">
	.st0{fill:#00ADEE;}
	.st1{fill:#FFFFFF;}
</style>
<g>
	<g>
		<path class="st0" d="M163,50.6c-5.1-25.1-27.2-44-53.9-44c-19.9,0-37.4,10.6-47,26.5c-2.4-1-5.1-1.6-7.9-1.6
			c-10.6,0-19.3,7.8-20.7,18c-14.8,3.6-25.9,17-25.9,33c0,18.7,15.2,33.9,33.9,33.9H43c4.5,13.4,17.2,23,32.1,23
			c11.7,0,21.9-5.9,28-14.8c2.6,1.2,5.5,1.8,8.6,1.8c7.6,0,14.2-4,17.9-10.1h21.8c18.7,0,33.9-15.2,33.9-33.9
			C185.4,67.8,176.1,55.3,163,50.6z"/>
		<path class="st1" d="M109.2,6.5c26.6,0,48.8,18.9,53.9,44c13,4.7,22.4,17.2,22.4,31.9c0,18.7-15.2,33.9-33.9,33.9h-21.8
			c-3.7,6-10.3,10.1-17.9,10.1c-3.1,0-5.9-0.7-8.6-1.8c-6.1,8.9-16.4,14.8-28,14.8c-14.9,0-27.6-9.6-32.1-23h-1.5
			c-18.7,0-33.9-15.2-33.9-33.9c0-16,11-29.3,25.9-33c1.4-10.2,10.2-18,20.7-18c2.8,0,5.5,0.6,7.9,1.6C71.7,17.2,89.2,6.5,109.2,6.5
			 M109.2,0.5C98.5,0.5,88,3.3,78.8,8.6C71.2,13,64.6,19,59.6,26.1c-1.8-0.4-3.5-0.5-5.4-0.5c-12,0-22.5,8-25.8,19.3
			C12.5,50.3,1.6,65.3,1.6,82.5c0,21.1,16.5,38.5,37.3,39.9c6.5,14,20.5,23.1,36.2,23.1c11.6,0,22.6-5.1,30.2-13.8
			c2.1,0.5,4.3,0.8,6.4,0.8c8.3,0,15.9-3.7,21-10.1h18.7c22,0,39.9-17.9,39.9-39.9c0-15.6-9.2-29.8-23.2-36.3
			C161.3,19.6,137,0.5,109.2,0.5L109.2,0.5z"/>
	</g>
	<g>
		<path class="st1" d="M60.7,46.1l1.7-4.2c0.3-0.9,0-1.4-0.5-1.8c-0.6-0.5-2.7-1.4-5.8-1.4c-9.9,0-12.6,5.6-13.4,13.5l-0.5,5.1
			c-0.4,4.4-1.6,7.6-5.8,9.4c-1.7,0.7-3,1.1-3,2.3c0,1,0.4,1.2,2,2c1.4,0.8,3,2,3,4.2c0,2-0.4,3.7-1,5.5L36,85.2
			c-1,3.1-1.4,5.5-1.4,7.4c0,3.7,2,7.5,9.6,7.5c3.2,0,5.2-0.6,6-0.9c0.6-0.3,1.2-0.8,1-2l-0.8-4.4c-0.1-0.9-0.5-1.2-1.3-1
			c-0.8,0.2-1.8,0.5-2.8,0.5c-1.6,0-2.3-0.7-2.3-2c0-1.8,0.6-3.7,1.2-5.6l1.1-3.7c0.6-1.8,1.3-4.4,1.3-6.8c0-2.5-1.1-4.8-3.8-5.6
			c5.1-1.7,6.8-5.2,7.2-9.8l0.6-5.2c0.4-4.1,1-7.1,4.4-7.1c1.3,0,2.3,0.4,3,0.7C59.6,47.5,60.2,47.3,60.7,46.1z"/>
		<path class="st1" d="M152,70c-1.4-0.8-3-1.8-3-4.2c0-1.7,0.6-3.5,1.1-5.3l1.1-3.3c0.9-2.8,1.4-5.1,1.4-7.4c0-3.7-2-7.5-9.6-7.5
			c-3.2,0-5.2,0.6-6,0.9c-0.6,0.3-1.2,0.8-1,2l0.8,4.4c0.1,0.9,0.5,1.2,1.3,1c0.8-0.2,1.8-0.5,2.8-0.5c1.6,0,2.3,0.7,2.3,2
			c0,1.8-0.6,3.6-1.2,5.6l-0.7,2.3c-0.6,2.2-1.5,4.5-1.5,6.6c0,3,1.1,4.4,3.9,5.6c-5.1,1.7-7,5.5-7.5,9.8l-0.7,6.8
			c-0.4,4.1-1,7.1-4.4,7.1c-1.3,0-2.3-0.4-3-0.7c-0.6-0.4-1.2-0.1-1.7,1.1l-1.7,4.2c-0.3,0.9,0,1.4,0.5,1.8c0.6,0.5,2.7,1.4,5.8,1.4
			c9.9,0,12.6-5.6,13.4-13.5l0.6-6.6c0.4-4.4,1.8-7.6,6-9.4c1.7-0.7,3-1.3,3-2.3C154,71.1,153.6,70.8,152,70z"/>
		<path class="st1" d="M82.5,66.9h5.3c5.7,0,10.3-4.6,10.3-10.3v-5.3V26.7h-7.3v14.8c-0.9-0.3-1.9-0.4-3-0.4h-5.3
			c-5.7,0-10.3,4.6-10.3,10.3v5.3C72.2,62.3,76.9,66.9,82.5,66.9z M79.6,51.4c0-1.6,1.3-3,3-3h5.3c1.6,0,3,1.3,3,3v5.3
			c0,1.6-1.3,3-3,3h-5.3c-1.6,0-3-1.3-3-3V51.4z"/>
		<path class="st1" d="M102.9,69.7h-5.3c-5.7,0-10.3,4.6-10.3,10.3v5.3c0,4,2.2,7.4,5.5,9.1v4.2c-3.3,1.7-5.5,5.2-5.5,9.1
			c0,5.7,4.6,10.3,10.3,10.3h5.3c5.7,0,10.3-4.6,10.3-10.3c0-5.7-4.6-10.3-10.3-10.3h-2.7v-1.8h2.7c5.7,0,10.3-4.6,10.3-10.3v-1.6
			h5.8v-7.3h-6.5C111.1,72.4,107.3,69.7,102.9,69.7z M105.9,107.7c0,1.6-1.3,3-3,3h-5.3c-1.6,0-3-1.3-3-3c0-1.6,1.3-3,3-3h5.3
			C104.6,104.8,105.9,106.1,105.9,107.7z M105.9,85.3c0,1.6-1.3,3-3,3h-5.3c-1.6,0-3-1.3-3-3V80c0-1.6,1.3-3,3-3h5.3
			c1.6,0,3,1.3,3,3v3.7V85.3z"/>
		<path class="st1" d="M112.7,66.9h5.3c5.7,0,10.3-4.6,10.3-10.3H121c0,1.6-1.3,3-3,3h-5.3c-1.6,0-3-1.3-3-3v-5.3c0-1.6,1.3-3,3-3
			h5.3c1.6,0,3,1.3,3,3h7.3c0-5.7-4.6-10.3-10.3-10.3h-5.3c-5.7,0-10.3,4.6-10.3,10.3v5.3C102.4,62.3,107.1,66.9,112.7,66.9z"/>
		<path class="st1" d="M72.7,69.7h-5.3c-1,0-2,0.2-3,0.4V55.3h-7.3V80v5.3c0,5.7,4.6,10.3,10.3,10.3h5.3C78.4,95.6,83,91,83,85.3V80
			C83,74.3,78.4,69.7,72.7,69.7z M75.7,85.3c0,1.6-1.3,3-3,3h-5.3c-1.6,0-3-1.3-3-3V80c0-1.6,1.3-3,3-3h5.3c1.6,0,3,1.3,3,3V85.3z"
			/>
	</g>
</g>
</svg>
